# xmcd
#
# Track frame offsets:
#  150
#  15830
#  32350
#  40610
#  56472
#  69397
#  74560
#  86052
#  99050
#  110215
#  125795
#  137310
#  149165
#  162255
#  172827
#  182285
#
# Disc length: 2574 seconds
#
# Revision: 5
# Processed by: cddbd v1.5.1PL2 Copyright (c) Steve Scherf et al.
# Submitted via: Collectorz.com_Music_Collector 6.11
#
DISCID=cc0a0c10
DTITLE=Various Artist - Songs of Yesterday (Vol. 1)
DYEAR=1991
DGENRE=Oldies
TTITLE0=Trini Lopez - America
TTITLE1=Judy Garland - San Francisco
TTITLE2=Buddy Holly - Rave On
TTITLE3=Tina Turner - Good Hearted Woman
TTITLE4=John Lee Hooker - Hobo Blues
TTITLE5=Marilyn Monroe - Runnin' Wild
TTITLE6=Count Basie - Jackson Country Jubilee
TTITLE7=Mahalia Jackson - An Evening Prayer
TTITLE8=Gene Vincent - Jezebel
TTITLE9=Ella Fitzgerald - Louis Armstrong - I'm Puttin' All My Eggs In One Basket
TTITLE10=Django Reinhardt - I Know That You Know
TTITLE11=Nina Simone - Work Song
TTITLE12=The Platters - Only Because
TTITLE13=Marlene Dietrich - Another Spring, Another Love
TTITLE14=Nat King Cole - Tell Me All About Yourself
TTITLE15=The Everly Brothers - Long Time Ago
EXTD=
EXTT0=
EXTT1=
EXTT2=
EXTT3=
EXTT4=
EXTT5=
EXTT6=
EXTT7=
EXTT8=
EXTT9=
EXTT10=
EXTT11=
EXTT12=
EXTT13=
EXTT14=
EXTT15=
PLAYORDER=
